<svg fill="none" xmlns="http://www.w3.org/2000/svg" viewBox="0 0 126 100">
  <path
    d="M3.219 69.932c-3.645-1.817-3.596-7.035.082-8.784l55.685-26.484a4.885 4.885 0 0 1 4.078-.055l60.03 26.605c3.793 1.68 3.897 7.026.172 8.853L65.047 98.62a4.885 4.885 0 0 1-4.331-.015L3.219 69.932Z"
    fill="#46c1ae" fill-opacity="0.3" />
  <path d="M61.012 54.056V.724l46.412 20.356-46.412 32.977Z" fill="#fff" stroke="#63d1bb"
    stroke-linejoin="round" />
  <path
    d="M61.012.723 16.635 21.079 62.64 54.056 61.013 41.03V.723ZM63.048 86.22V41.029l44.376-19.95-3.664 44.784L63.048 86.22Z"
    fill="#fff" stroke="#63d1bb" stroke-linejoin="round" />
  <path
    d="M63.048 41.12 16.635 21.08l4.886 44.783L63.048 86.22V41.12ZM70.783 61.792 63.048 41.03l44.376-19.95 9.364 19.95-46.005 20.763Z"
    fill="#fff" stroke="#63d1bb" stroke-linejoin="round" />
  <path d="m8.085 40.214 8.55-19.135L62.64 41.03l-8.55 20.356-46.005-21.17Z" fill="#fff"
    stroke="#63d1bb" stroke-linejoin="round" />
</svg>
