<svg fill="none" viewBox="0 0 318 252" xmlns="http://www.w3.org/2000/svg">
  <rect width="100%" height="100%" />
  <g class="currentLayer">
    <path
      d="M185.433 239.872c38.618 3.096 95.352-5.734 98.62-41.505.444-4.778 10.78-17.421 9.29-22.056-1.03-3.202-16.52 2.656-19.31-.115a31.062 31.062 0 0 0-7.836-5.553c-14.347-7.339-38.771-4.204-60.051-3.889-19.338.287-39.214-.659-57.456 4.673-16.078 4.702-34.137 24.513-22.117 40.874 11.059 15.147 21.377 24.474 58.86 27.571zm-169.511-1.854c11.876 11.764 40.608 19.562 62.042 9.021a30.75 30.75 0 0 0 14.895-16.313c3.376-8.859 0-19.314-6.731-26.061s-16.145-10.187-25.588-11.468c-11.26-1.567-23.213-.248-33.041 5.438-14.04 8.113-25.578 25.554-11.577 39.383z"
      fill="#64B0E1" opacity=".35" />
    <path
      d="m301.575 80.324-.904-4.96c.74-.172 1.269.697 1.5 1.424a34.098 34.098 0 0 1 1.279 5.543 3.856 3.856 0 0 0-1.702-.956m12.549 12.405 1.682-2.868-.884 3.966a7.97 7.97 0 0 1 1.865-1.414l-3.375 7.588c-.462-.392 0-.956.067-1.577.193-1.873-.307-4.061.645-5.696z"
      fill="#5E4741" />
    <path
      d="M202.338 94.056c-1.193-2.16-3.04-4.195-2.885-6.861 0-.24.067-2.055-.471-2.045-.54.01-.395 1.796-.375 2.064a14.167 14.167 0 0 0 1.038 4.53c.49 1.099 1.404 2.867 2.645 3.24.192.047.096-.86 0-.956l.048.028z"
      fill="#224160" />
    <path
      d="M156.575 113.466s-.086.239-.26.64c-.826 1.912-3.74 8.257-10.366 17.088a50.6 50.6 0 0 0 2.77-.249 85.017 85.017 0 0 0 9.193-15.29c.384-.861.567-1.367.606-1.463l-1.943-.726zm17.472-41.428c3.98 0 8.078.096 12.097.325a48.356 48.356 0 0 0-.76-2.103 212.313 212.313 0 0 0-11-.277c.5.679.808 1.118.875 1.214l-1.212.841zm-20.193 9.624 2.538-.163a289.688 289.688 0 0 1 31.675-.325 54.897 54.897 0 0 0-.288-2.074 296.545 296.545 0 0 0-33.656.488h-.394l.125 2.074zm11.27 10.225h2.5c8.443.058 15.732.43 20.347.726a41.25 41.25 0 0 0 .24-2.045c-5.02-.315-13.202-.736-22.664-.736h-.423v2.055z"
      fill="#DF9FA1" />
    <path
      d="m153.642 49.236-.875-.516-1.03 1.787.915.545c7.875 4.864 15.732 14.488 19.136 18.95.72.956 1.25 1.663 1.519 2.046l.24.334.48-.334 1.213-.841c-.068-.096-.375-.535-.875-1.214-2.75-3.765-11.578-15.157-20.723-20.757z"
      fill="#DF9FA1" />
    <path
      d="M214.223 33.315S232.109 4.778 238.782 0c0 0 .596 10.694 1.98 21.617 1.415 11.2 3.569 22.688-.297 26.95 0 0-20.607-5.562-26.242-15.252z"
      fill="#5E4741" />
    <path
      d="M221.166 30.581s7.577-15.577 15.51-23.213c0 0 .077 8.534 1.183 17.862 1.164 9.853 3.346 20.604 2.644 23.729-.028-.02-15.087-16.992-19.337-18.378z"
      fill="#EA9DAF" />
    <path
      d="M227.38 30.514s1.692-8.056 4.192-9.145c2.5-1.09 1.722 13.714 1.722 13.714s1.836-6.547 3.346-5.457 0 9.346 0 9.346-.212-6.546-.683-6.546-3.615 5.074-3.615 5.074.326-11.62-.77-11.544-4.192 4.558-4.192 4.558z"
      fill="#F5EFDB" />
    <path
      d="M172.124 32.1s-35.58-3.956-44.733 8.038c0 0 33.723 21.98 44.06 21.388 0 .01 6.99-20.184.673-29.425z"
      fill="#5E4741" />
    <path
      d="M166.249 37.194s-20.3-4.396-30.771 2.715c0 0 24.444 16.485 29.742 18.253-.03-.01.173-17.068 1.029-20.968z"
      fill="#EA9DAF" />
    <path
      d="M158.662 41.782s-7.818-2.705-10.05-1.128c-2.23 1.577 11.01 8.515 11.01 8.515s-6.586-1.806-6.422 0c.163 1.806 8.058 4.778 8.058 4.778s-5.53-3.545-5.29-3.947c.242-.401 6.242-.468 6.242-.468s-10.183-5.734-9.558-6.603c.625-.87 6.01-1.147 6.01-1.147z"
      fill="#F5EFDB" />
    <path
      d="M256.2 170.29s3.029-45.519-3.798-85.427c-2.481-14.517-8.453-27.523-13.847-38.035-5.462-10.666-11.3-18.904-20.858-20.318-46.416-6.871-60.475 14.746-60.186 41.753.288 27.007-.962 64.488-27.963 82.589-26.742 17.928-19.684 38.561 1.355 66.781 4.866 6.528 19.675 12.137 27.618 12.806 100.52 8.534 97.679-60.149 97.679-60.149z"
      fill="#F9F5E8" />
    <path
      d="M156.738 93.302s8.405-.679 13.386-5.859c2.375-2.465.106-9.843 4.144-12.901 11.54-8.725 22.01-26.31 16.646-48.586 0 0-30.156-.497-35.291 35.837-.663 4.721-9.212 6.833-8.654 16.122.47 6.929 5.72 12.72 9.769 15.386zM200.01 25.23a81.135 81.135 0 0 0 4.626 30.495c7.616 21.158 26.473 2.494 31.733 4.778 7.692 3.383-6.914 12.93-3.76 19.706 2.298 4.931 6.279 4.377 13.712.344 0 0 11.337-8.601 7.693-21.75-3.154-11.918-13.616-7.866-15.54-13.887-5.413-16.112-13.808-22.687-38.463-19.686z"
      fill="#5E4741" />
    <path
      d="M176.56 64.414c6.659-.119 11.96-5.584 11.84-12.207s-5.615-11.895-12.273-11.776c-6.66.119-11.96 5.584-11.84 12.207s5.615 11.895 12.273 11.776z"
      fill="#F39340" />
    <path
      d="M176.5 61.834c5.225-.093 9.384-4.378 9.29-9.57-.094-5.194-4.405-9.327-9.63-9.234s-9.385 4.379-9.291 9.571c.094 5.193 4.406 9.327 9.63 9.233z"
      fill="#423330" />
    <path
      d="M218.46 61.497c6.658-.12 11.959-5.584 11.839-12.207s-5.615-11.895-12.273-11.776c-6.66.119-11.96 5.584-11.84 12.207s5.615 11.895 12.274 11.776z"
      fill="#F39340" />
    <path d="M242.77 158.94s-33.993-44.917-67.976 33.046c0 0 27.492-84.882 67.976-33.046z"
      fill="#D0C4B3" />
    <path
      d="M171.06 204.73c15.74-6.995 26.925-61.583 19.674-65.74-10.481-6.002-47.647 78.183-19.674 65.74z"
      fill="#5E4741" />
    <path d="M293.286 51.854s-16.242 15.912-52.888 13.103c.077.028 34.617 5.886 52.888-13.103z"
      fill="#CCC" />
    <path d="M299.25 60.14s-22.54 14.813-58.485 5.868c0 0 37.849 10.608 58.485-5.868z" fill="#CCC" />
    <path
      d="M293.382 72.028s-21.232 11.01-52.888-5.017c-.02 0 30.223 18.617 52.888 5.017zM111.543 55.323s15.597 16.543 52.282 15.167c.02 0-34.694 4.52-52.282-15.167z"
      fill="#CCC" />
    <path d="M105.31 63.36s21.934 15.683 58.158 8.171c0 0-38.195 9.108-58.158-8.17z" fill="#CCC" />
    <path d="M110.7 75.498s20.78 11.83 53.07-2.934c0-.03-30.963 17.383-53.07 2.934z" fill="#CCC" />
    <path
      d="M191.414 59.806c-1.395 2.523 6.327 8.314 6.327 8.314s5.895-6.613 4.366-9.04c-1.135-1.855-9.635-1.186-10.693.726z"
      fill="#ED808D" />
    <path
      d="M254.139 98.28c-6.54-7.148-17.376-13.713-38.887-.085-11.347 7.186-14.655 21.903-6.28 24.637 8.376 2.733 11.924-10.838 22.52-10.131 8.136.545 22.637 12.051 22.637 12.051s13.915-11.286.01-26.471zm-100.4 3.919c5.48-4.3 8.433-7.703 29.367 1.806 12.23 5.562 14.98 21.684 6.644 24.541-8.337 2.858-12.087-10.665-22.674-9.795-8.126.659-20.088 12.424-20.088 12.424s-5.731-19.19 6.75-28.976z"
      fill="#5E4741" />
    <path
      d="M182.817 54.502a1.985 1.985 0 0 0 1.99-1.979 1.985 1.985 0 0 0-1.99-1.978c-1.1 0-1.99.886-1.99 1.978 0 1.093.89 1.978 1.99 1.978z"
      fill="#fff" />
    <path
      d="M218.419 59.529c5.225-.094 9.384-4.38 9.29-9.572-.094-5.193-4.406-9.326-9.63-9.233-5.225.093-9.385 4.379-9.291 9.571.094 5.193 4.406 9.327 9.63 9.233z"
      fill="#423330" />
    <path
      d="M224.05 52.523c1.1 0 1.99-.885 1.99-1.978a1.984 1.984 0 0 0-1.99-1.978c-1.1 0-1.99.886-1.99 1.978 0 1.093.89 1.978 1.99 1.978z"
      fill="#fff" />
    <path
      d="M256.2 170.29s-39.84 1.366-38.031 43.779c.615 14.583-63.918-29.836-56.004 17.909 0 0 47.205 3.651 71.235-12.127 14.944-9.825 30.195-18.473 22.8-49.561z"
      fill="#5E4741" />
    <path
      d="M168.87 178.63s1.99-17.202 8.75-16.438c6.76.765-8.385 30.725-8.75 16.438zm5.491-25.144s-1.741 3.154.423 4.616 4.73-10.722-.423-4.616zm4.923.488s-2.02 2.981 0 4.635c2.019 1.653 5.693-10.255 0-4.635zm5.02 2.857s-2.741 2.341-1.222 4.473c1.52 2.131 8.193-8.401 1.222-4.473z"
      fill="#DF9FA1" />
    <path
      d="M208.97 122.83s3.433-4.779 6.279-5.734c-.01-.029-6.52.353-6.28 5.734zm-2.606-1.854s3.433-4.779 6.279-5.734c0-.02-6.51.391-6.28 5.734zm-1.827-3.909s3.433-4.778 6.279-5.734c-.01-.029-6.52.354-6.28 5.734zm-23.386 5.724s4.923 3.192 6.077 5.973c0 0-.683-6.441-6.077-5.973zm3.471-1.882s4.683 3.545 5.625 6.393c-.048 0-.26-6.479-5.625-6.393zm-.183 25.44s2.164-5.438 4.674-7.111c0 0-6.222 1.95-4.674 7.111zm3.404 2.131s1.058-5.734 3.183-7.885c0 0-5.721 3.125-3.183 7.885z"
      fill="#F5EFDB" />
    <path
      d="M123.98 207.72c10.49-13.608-5.77-66.896-14.174-67.126-12.078-.315-4.462 91.314 14.174 67.126z"
      fill="#5E4741" />
    <path
      d="M109.572 185.81s-6.481-16.074-.173-18.607c6.308-2.532 7.366 30.973.173 18.607zm-7.212-24.704s0 3.593 2.577 3.823c2.577.229-.961-11.64-2.577-3.823zm4.568-1.911s-.356 3.574 2.22 4.071c2.578.497.097-11.707-2.22-4.071zm5.779.143s-1.29 3.364 1.067 4.511c2.356 1.146 3.183-11.277-1.067-4.511z"
      fill="#DF9FA1" />
    <path
      d="M107.803 150.039s-.702-5.81.71-8.467c-.008.01-4.547 4.645-.71 8.467zm4.01.268s-1.827-5.562-.962-8.439c-.01 0-3.54 5.457.962 8.439zm75.36-32.368s4.924 3.191 6.078 5.972c.028 0-.693-6.46-6.078-5.972z"
      fill="#F5EFDB" />
    <path
      d="M187.423 231.271c-12.414.067-25.684-.153-37.56-4.062a39.593 39.593 0 0 1-17.847-11.764c-4.731-5.524-5.933-11.783-8.847-18.158-.365-.793-1.548-.344-1.567.421-.154 6.346 3.846 13.446 7.693 18.282a40.866 40.866 0 0 0 16 12.127c13.463 5.734 27.945 4.922 42.128 3.211 0 0 .048-.076 0-.076v.019zm-68.87-67.728c2.683-1.663 3.683-4.941 5.5-7.445 2.674-3.689 5.963-5.667 9.76-8.066 6.8-4.3 9.954-11.783 14.77-17.861a.34.34 0 0 0 .08-.416.339.339 0 0 0-.234-.179.35.35 0 0 0-.288.067.328.328 0 0 0-.095.117c-3 3.947-6.51 7.645-9.79 11.334-2.942 3.355-6.51 4.951-10.02 7.493-4.057 2.934-10.03 9.623-9.731 14.927h.058l-.01.029zm36.705-58.085a21.205 21.205 0 0 0 2.798-14.507c-.25-1.195-2.106-.899-2.106.286a54.8 54.8 0 0 1-.308 8.506 29.083 29.083 0 0 0-.461 5.734h.067l.01-.019zm35.646-81.901-1.192-2.054c-.144-.259-.558 0-.394.229l1.259 2.016a.195.195 0 0 0 .245.042.192.192 0 0 0 .082-.233zm2.885 2.122c.116-1.1.5-2.122.683-3.202.183-1.08.356-2.284.606-3.421a1.095 1.095 0 0 0-.5-1.18 1.113 1.113 0 0 0-1.286.09 1.093 1.093 0 0 0-.397.794 23.202 23.202 0 0 0-.144 3.708c.086 1.099.47 2.169.653 3.249 0 .23.356.143.376-.048l.009.01z"
      fill="#5E4741" />
    <path
      d="M190.895 25.965s9.308-.774 10.019-.898c.712-.124-3.134 9.337-3.134 9.337l-.962-6.231-.904 3.937-1.625-3.545-.5 5.839-3.587-4.234.693-4.205zm2.471 59.72c6.856 5.332 15.74 3.756 20.992-3.03.317-.401.153-2.274-.5-1.653-5.683 5.38-13.06 8.601-20.463 4.368-.096-.058-.106.257 0 .315h-.03zm55.58 115.482c14.857-4.778 33.906-7.224 44.436-18.673 27.617-30.027 33.002-89.833 13.02-100.211-35.08-18.158-44.176 49.064-32.954 47.945 4.885-.487 6.73-42.613 25.79-37.27 17.713 4.93 3.144 65.482-15.587 79.406-13.655 10.149-34.426 12.165-39.311 14.612-2.173 5.113 1.924 9.318 4.606 14.191z"
      fill="#5E4741" />
    <path
      d="M182.336 77.065c-8.135 11.468-15.385 24.063-17.991 37.997a59.835 59.835 0 0 0-.702 18.626c.654 5.084 1.779 12.624 6.462 15.74 9.962 6.632 13.712-13.714 15.107-19.63a247.11 247.11 0 0 0 5.029-32.492c.577-5.916 1.404-12.825 1.22-18.358 0-.89-.48-1.663-.586-.297-.067.85.462 2.189.587.602.135-1.758-.654.803-.673.841a18.307 18.307 0 0 0-.25 3.546c-.298 4.233-.625 8.467-1.048 12.691-1.145 11.468-2.702 23.079-5.606 34.299-1.231 4.778-2.943 14.335-7.8 16.571-11.144 5.161-12.365-18.158-12.038-23.567a67.583 67.583 0 0 1 7.462-26.52c3.317-6.498 7.693-12.423 10.99-18.902a2.068 2.068 0 0 0-.143-1.147h-.02zm34.579-4.329a34.922 34.922 0 0 0 7.77 16.991c2.885 3.45 10.328 12.367 12.962 4.033a13.5 13.5 0 0 0-1.461-11.353c-3.702-5.275-10.366-7.167-13.193-13.322-.212-.468-.366 1.328-.27 1.615a16.317 16.317 0 0 0 5.914 8.152c2.635 2.074 7.232 4.386 8.25 7.846 1.597 5.466-1.586 10.006-6.557 6.078a43.136 43.136 0 0 1-5.953-6.088 35.593 35.593 0 0 1-7.192-14.85c-.164-.65-.298.707-.27.888v.01z"
      fill="#63d1bb" />
    <path
      d="M221.839 70.643c-.79.248-.51.64-.202.783a11.79 11.79 0 0 0 1.644-.43c1.597 0 1.49.172 2.058 1.424 1.048 2.303.404 4.692 3.385 5.973 1.202.516 2.115.115 3.298.306 5.02.784 3.847 6.002 3.424 10.12a38.407 38.407 0 0 0-.356 5.81c.365 7.293 6.375 14.25.836 21.102a10.441 10.441 0 0 1-3.192 2.685c-6.01 3.269-6.356-5.982-5.02-11.133.827-3.202 2.48-6.202 3.847-9.213 1.856-4.233 3.48-8.658 3.51-13.38 0-2.56-.347-5.609-1.924-7.702-2.192-2.867-8.654-3.507-8.77-7.731 0-1.128-.5-1.137-.49 0 .048 3.975 2.173 5.132 5.472 6.948 10.73 5.906 1.557 19.438-1.472 27.561-1.682 4.53-2.884 9.853-1.307 14.593 2 6.135 8.01 2.437 10.577-1.491a15.907 15.907 0 0 0 1.721-12.834c-.557-2.093-1.615-4.005-2.221-6.079-1.288-4.424-.442-7.425-.115-11.467a20.258 20.258 0 0 0-.221-5.945c-.606-2.771-1.452-4.042-4.29-4.453-3.942-.574-4.413.115-6.028-4.778-.087-.249.134-.87 0-1.07-.645-.746 0-.956-1.404-1.071-.962-.086-2.577.956-3.3 1.567-.09.24-.09.505 0 .746.22-.108.432-.23.636-.363.096-.058 0-.593 0-.574l-.096.096zm25.828 139.603c-8.365 12.758-28.28 1.195-33.598-8.935-4.375-8.334-7.385-17.661-10.924-26.357-2.74-6.738-4.923-14.106-9.798-19.668-.135-.153-.856 2.466-.164 3.154 3.5 3.44 5.116 8.113 6.933 12.557l5.664 13.934c3.068 7.483 5.472 16.886 10.78 23.213 3.97 4.778 10.972 8.343 17 9.681 6.472 1.443 11.376-1.329 14.165-7.149 0-.086 0-.525-.086-.392l.028-.038z"
      fill="#63d1bb" />
    <path
      d="M161.46 186.794c-5.885 5.295-5.116 13.876-1.442 20.251a17.606 17.606 0 0 0 4.692 5.085 17.72 17.72 0 0 0 6.3 2.897 17.772 17.772 0 0 0 13.442-2.153c10.145-6.536 13.645-22.257 15.847-33.133 1.875-9.279 2.327-22.104-7.693-27.026-.51-.248-.788 2.647-.153 2.991 11.346 6.012 7.97 20.213 5.192 30.352-2.125 7.741-5.192 16.677-11.308 22.286-5.241 4.779-14.81 5.639-20.992 1.912a15.58 15.58 0 0 1-4.664-5.056c-3.76-5.896-3.115-12.27.895-17.813.076-.105 0-.679-.068-.602l-.048.009zm-56.513-7.33c-2.5.335-1.991 4.444-1.645 6.164 1.116 5.562 6.453 7.932 11.818 6.977 5.366-.956 12.886-4.779 14.03-10.513.49-2.465.346-7.922-3.394-6.814-.79.23-.212 3.24.077 3.135 2.96-1.061 1.923 3.87.432 5.677a11.217 11.217 0 0 1-2.27 1.806 23.69 23.69 0 0 1-8.942 4.109c-5.077.956-15.26-2.504-10.068-9.92 0-.066.096-.63 0-.611l-.038-.01z"
      fill="#63d1bb" />
    <path
      d="M103.937 166.773c-1.923 1.328-1.394 5.285-.231 6.996 1.875 2.761 6.424 2.494 9.347 2.609 4.889.153 9.784-.041 14.645-.583a110.62 110.62 0 0 0 27.598-6.604c8.529-3.249 16.49-8.878 25.742-9.786.51-.048.365-2.427-.058-2.38-6.51.669-12.02 3.718-17.818 6.489a111.37 111.37 0 0 1-19.405 7.149 110.58 110.58 0 0 1-20.405 3.411c-3.164.23-6.318.297-9.491.268-1.673 0-3.356 0-5.03-.134-2.49-.21-9.298-2.074-4.807-6.842.086-.096 0-.66-.058-.602l-.03.009z"
      fill="#63d1bb" />
    <path
      d="M183.875 77.409a215.6 215.6 0 0 1-18.771 45.117c-7.875 14-17.991 26.281-26.78 39.66-3.981 6.068-7.491 12.576-9.241 19.658-2.048 8.286-.885 17.106-3.846 25.191-5.001 13.8-18.713 22.86-32.483 26.501-17.194 4.549-35.397 1.261-52.465-2.179-7.924-1.596-16.915-2.867-22.377-9.433-7.125-8.601-9.895-22.63-6.49-33.046 4.807-14.804 21.953-23.022 35.52-13.867 5.857 3.956 10.088 10.149 13.194 16.361 4.808 9.557 9.809 22.936 3.27 32.588-13.828 20.47-39.224-10.264-32.358-26.596 4.72-11.229 16.097 3.593 18.5 9.299 2.51 5.953.26 13.742-6.826 14.334-3.654.316-7.058-2.026-9.347-4.654a17.19 17.19 0 0 1-3.54-5.858c-.383-1.3-.47-7.435-.056-8.601a7.46 7.46 0 0 1 1.519-2.58 5.512 5.512 0 0 1 1.892-1.428 5.56 5.56 0 0 1 4.64 0 5.518 5.518 0 0 1 1.89 1.428c3.482 3.612 4.425 11.831 2.184 16.122-1.75 3.354-5.356 4.406-8.568 2.15-3.846-2.676-5.635-8.104-6.923-12.28-1.866-6.04-.875-14.001 5.914-16.562 11.356-4.272 17.789 12.51 15.02 20.671-5.462 16.036-27.252 11.545-32.925-1.854-3.51-8.333-.962-25.411 9.02-29.386 7.548-2.992 16.558 3.45 22.328 7.712a47.23 47.23 0 0 1 7.924 7.167 29.033 29.033 0 0 1 3.432 4.865 17.283 17.283 0 0 1 1.606 12.729c-1.807 6.04-8.231 10.101-14.087 11.411-17.04 3.822-29.81-13.953-26.58-29.626 1.598-7.817 7.059-15.787 15.858-15.864 8.549-.076 16.049 6.546 19.809 13.714 5.375 10.225 3.414 22.735-6 29.769-5.77 4.31-13.386 5.782-20.08 2.79a19.879 19.879 0 0 1-8.768-7.807c-3.414-5.601-2.972-14.727 3.673-17.757 6.183-2.819 13.962.774 18.27 5.304 6.01 6.317 7.376 21.751-4.75 20.318-4.404-.516-7.78-3.517-10.106-7.063a35.274 35.274 0 0 1-2.808-5.351c-1.077-2.476-2.885-7.77-.76-9.777 3.846-3.67 10.635.956 14.539-3.22a2.037 2.037 0 0 0 0-1.635 5.408 5.408 0 0 0-1.694-2.181 5.465 5.465 0 0 0-2.556-1.068c-.192 0-.365 1.711 0 1.797a4.517 4.517 0 0 1 2.477.888 4.472 4.472 0 0 1 1.552 2.113v-1.635c-4.51 4.884-16.982-1.739-16.212 8.601.586 7.875 6.923 19.276 15.558 20.26 7.924.908 10.915-6.479 9.924-13.016a20.526 20.526 0 0 0-5.087-10.556 20.718 20.718 0 0 0-10.058-6.091c-9.462-2.428-15.53 4.883-14.876 13.771a19.755 19.755 0 0 0 4.875 11.344 19.957 19.957 0 0 0 10.684 6.278c9.99 2.055 20.03-4.778 23.905-13.675 3.24-7.474 2.394-16.495-1.154-23.691-4.394-8.926-15.462-18.263-26.04-13.59-8.03 3.555-11.155 13.379-11.26 21.426-.106 8.601 2.942 17.756 9.76 23.414a21.262 21.262 0 0 0 24.396 1.72 18.063 18.063 0 0 0 7.17-7.694 17.926 17.926 0 0 0 1.648-10.358c-1.087-9.614-8.78-16.916-16.425-22.067-4.125-2.781-8.952-5.887-13.962-6.689-6.308-1.023-10.578 2.666-13.405 7.893-4.058 7.483-5.308 17.03-2.567 25.163 2.837 8.41 10.856 14.459 19.924 14.058 9.068-.401 14.809-8.085 15.27-16.715.404-7.568-2.961-17.871-11.356-19.801-9.28-2.131-13.463 8.601-12.722 15.931.587 5.858 5.394 22.238 14.02 19.362 6.212-2.074 5.289-12.424 4.212-17.298-.673-3.068-1.866-6.881-4.808-8.486-3.635-1.959-6.981.363-8.51 3.679-2.991 6.518-.962 14.87 3.663 20.069 6.385 7.187 16.588 5.361 18.03-4.606 1.212-8.362-4.49-17.307-10.933-22.305-9.616-7.435-11.732 9.222-10.953 15.29 1.23 9.557 7.107 20.222 16.069 24.456 9.145 4.319 17.934-1.692 20.703-10.627 2.885-9.308-.385-19.687-4.058-28.288-3.75-8.783-9.491-18.014-18.405-22.343-9.914-4.779-21.155-1.109-27.887 7.177-5.923 7.301-7.308 17.039-6.125 26.118 1.221 9.394 5.039 20.623 13.866 25.459 5.616 3.077 12.347 3.947 18.55 5.17 7.125 1.405 14.289 2.705 21.53 3.393 12.962 1.242 26.386.544 38.358-4.979 8.78-4.052 16.694-10.627 21.319-19.171 6.135-11.334 3.327-24.522 7.885-36.315 4.72-12.242 13.616-22.382 21.059-33.018a229.114 229.114 0 0 0 18.76-31.719 200.013 200.013 0 0 0 12.848-34.9c0-.087 0-.43-.058-.364l.029-.02z"
      fill="#63d1bb" />
    <path
      d="M274.63 110.523a3.867 3.867 0 0 1-4.23-.956c-.077.43-.645.831-.721 1.271-4.135 22.984-3.645 41.313 3.029 39.498 1.538-.421 2.355-3.661 4.72-6.174 6.376-6.776 2-19.973 3.463-34.404-1.125.029-4.077-.277-6.26.765z"
      fill="#F9F5E8" />
    <path
      d="M270.14 112.042c-1.616 9.222-3.212 18.855-3.433 28.23-.048 2.198-.26 5.438.875 7.464.798 1.434 2.356 2.571 3.154 3.938.51.869.289 1.032.962 1.787.21.219.384-.058.452-.249.96-2.867 3.25-8.362 6.933-7.645.144 0 .202-.258.21-.344a320.839 320.839 0 0 0 1.809-35.58c0-.86-.692-.86-.673 0 .183 6.174 0 12.367-.28 18.531a285.435 285.435 0 0 1-.48 7.463c0 .593-.355 9.892-2.51 8.191-.134-.106-.24 0-.278.152l-3.75 3.766a.24.24 0 0 0-.118.079.256.256 0 0 0-.056.131 2.157 2.157 0 0 1-.394 1.593c-.336.459-.84.769-1.404.863a8.39 8.39 0 0 0-.182-.956c-.202-.172-.29-.716-.414-1.022a1.735 1.735 0 0 0-.635-.574 7.289 7.289 0 0 1-1.862-2.283 7.23 7.23 0 0 1-.801-2.829c-.423-2.017.058-4.349.25-6.375.779-8.104 2.038-16.141 2.587-24.274 0 0 0-.047 0 0l.038-.057zm-20.463-35.445c2.616 6.976 2.818 14.774 3.625 22.075.116 1.013.962.956 1.058 0a42.851 42.851 0 0 0-1.163-13.723c-.52-2.274-1.212-7.234-3.462-8.496-.067 0-.067.144-.058.163v-.02zm6.173 45.728c1.597 7.798.905 16.552.722 24.455-.183 7.904-1.318 15.769-1.366 23.586 0 .851.895 1.959 1.26.631.875-3.173.683-6.852.827-10.12.224-4.9.353-9.802.385-14.708.048-7.645.769-16.495-1.79-23.892 0-.057 0 0 0 0l-.037.048zm-68.244-96.216a14.168 14.168 0 0 0-5.183-6.088c-.231-.134-.25 1.166-.067 1.376.875.956 1.875 1.778 2.788 2.676a31.981 31.981 0 0 0 2.424 2.418c.067.057.057-.334 0-.382h.038zm7.683.353a22.594 22.594 0 0 1 4.414-6.938c.086-.095 0-.573-.048-.525a17.458 17.458 0 0 0-4.453 7.244v.22h.087z"
      fill="#5E4741" />
    <path
      d="M166.297 42.279c.336-.144.48 0 .827-.144.28-.132.55-.286.808-.459a37.425 37.425 0 0 0 2.298-1.462c1.404-.955 3.173-2.016 4.183-3.43.173-.24.317-2.37-.135-2.237-1.461.42-2.837 2.131-3.914 3.135-.711.669-1.423 1.338-2.086 2.054-.664.717-1.298 1.663-1.981 2.495 0 0 0 .047 0 0v.047zm50.733-9.127c.597 1.587 2.616 2.017 4.136 2.523l3.019 1.013c.779.268 1.923.956 2.722.612.798-.344.48-2.58 0-3.049-.962-1.051-3.116-1.023-4.472-1.271a24.182 24.182 0 0 0-5.068-.65.169.169 0 0 0-.047.075.175.175 0 0 0-.001.088s-.336.487-.26.688l-.028-.029z"
      fill="#231E1E" />
    <path
      d="M254.649 96.245c5.769 8.744 9.72 17.145 8.077 27.991a38.586 38.586 0 0 1-10.79 21.025c-10.846 11.181-26.443 16.246-41.838 15.893a86.159 86.159 0 0 1-25.665-4.779c-5.905-2.007-11.174-4.176-17.386-5.007-8.53-1.128-27.021-.306-27.07-12.653 0-1.157-.643-2.179-.75-.383-.518 9.289 5.51 13.275 14.069 14.813 5.279.956 10.664 1.214 15.963 2.064 6.808 1.09 12.866 4.138 19.443 6.088 15.895 4.692 33.387 5.17 48.609-2.016 11.693-5.524 21.357-15.291 24.934-27.81 3.048-10.704 2.548-28.67-7.587-35.866-.106-.077-.096.583 0 .688l-.01-.048z"
      fill="#63d1bb" />
    <path
      d="M200.684 60.044a7.843 7.843 0 0 0-4.106.402c.077.315.5.373.827.363l2.76-.105a.783.783 0 0 0 .423-.096.275.275 0 0 0 .122-.168.27.27 0 0 0-.036-.204.838.838 0 0 1-.586-.115"
      fill="#fff" />
    <path
      d="M209.896 75.067c.269-.057.634-.066.72.192.088.258-.076.372-.211.506-1.163 1.185-2.23 2.743-3.846 3.068-1.615.325-13.145.764-12.183-.85.644-1.09 3.692-.727 4.808-.87 3.577-.497 7.144-1.29 10.712-2.046z"
      fill="#EA9DAF" />
    <path
      d="M180.086 77.409c15.607 1.835 34.473.678 47.282-9.557.365-.287.183-1.816-.221-1.529-13.463 9.461-30.993 11.468-47.071 10.857-.067 0-.057.2 0 .21l.01.019z"
      fill="#382A27" />
    <path
      d="M295.517 92.508c-2.616 1.52-4.337 4.693-5.04 7.541a.686.686 0 0 0 .5.772.692.692 0 0 0 .827-.409c1.02-2.781 2.52-5.2 3.77-7.856l-.048-.048h-.01zm-11.443-8.858c-1.222-.364-2.577.305-3.703.764a8.243 8.243 0 0 0-3.49 2.293.799.799 0 0 0-.002 1.032.805.805 0 0 0 1.02.182 40.338 40.338 0 0 0 3.51-2.313c.963-.611 2.078-.955 2.75-1.91a.072.072 0 0 0 .02-.027.069.069 0 0 0 .007-.031.069.069 0 0 0-.007-.032.072.072 0 0 0-.02-.026l-.085.067z"
      fill="#5E4741" />
    <path
      d="M2.18 196.169a.6.6 0 0 0-.153-.057c-1.193-.22-1.924 1.911-2.01 2.771-.06.995.043 1.992.308 2.953.243 1.064.528 2.119.855 3.164.081.291.2.571.356.831 0-.745-.067-1.491-.067-2.246a39.91 39.91 0 0 1 .711-7.416zm-1.144 13.685c-.779 2.743.087 5.667 1.144 8.315a30.544 30.544 0 0 0 2.27 4.692c.48.784 1.163 1.625 2.096 1.634a1.57 1.57 0 0 0 .74-.191 39.584 39.584 0 0 1-5.442-15.434c-.308-.038-.596.21-.808.984zM9.7 230.268c.294.459.65.877 1.058 1.242a2.041 2.041 0 0 0 1.52.506c.288-.043.56-.162.788-.344a40.307 40.307 0 0 1-4.164-4.94c-.384.821-.173 2.15.798 3.536zm37.04 4.357c0-5.256-.066-11.783-.537-19.371-2.587 3.001-5.097 5.734-7.424 8.037l-.057.057c0 4.664-.116 8.984-.27 12.672a47.86 47.86 0 0 0 8.289-1.395zM1.748 208.172a58.65 58.65 0 0 1-.173-1.911c.044.65.102 1.287.173 1.911zm63.639-1.232a62.739 62.739 0 0 1-8.02-6.25 138.113 138.113 0 0 1-2.193 3.163c.125 1.242.606 6.049.962 12.586a66.724 66.724 0 0 0 9.25-9.499zm-16.8 27.198a36.392 36.392 0 0 0 6.097-2.561v-.641l-.298-.43.298-.21c0-10.426-.77-19.906-1.164-24.169-1.923 2.542-3.76 4.922-5.615 7.149.567 8.132.72 15.128.682 20.862zM8.566 190.607a4.16 4.16 0 0 1-.75 3.68 3.285 3.285 0 0 1-3.52.955 190.197 190.197 0 0 0 19.367 12.529 215.628 215.628 0 0 0 5.423-6.441 186.314 186.314 0 0 1-20.972-12.902c.201.794.327 1.644.452 2.179zm52.378-22.228c.003.047.003.095 0 .143v-.143zm-9.529-3.651a40.58 40.58 0 0 0-17.335-.416 40.47 40.47 0 0 0-15.908 6.857 151.14 151.14 0 0 0 32.858-5.438l.385-1.003zm25.511 28.947c.102-.726.195-1.453.279-2.179a48.063 48.063 0 0 1-4.808-8.926c-.53-1.309-2.202-4.329-1.568-5.734.09-.2.22-.379.385-.525l-.452-.45a134.6 134.6 0 0 1-4.577 9.825 65.325 65.325 0 0 0 10.74 7.989zm-62.841 38.991a38.38 38.38 0 0 1-.885-.85c.26.286.587.573.885.85zm22.454 3.488c.134-3.22.25-6.938.269-10.961a153.91 153.91 0 0 1-11.703 10.321c2.858.498 5.754.747 8.655.745.99-.019 1.913-.057 2.779-.105zM8.248 181.395zm7.539-8.372a25.274 25.274 0 0 1 2.26-1.758 39.768 39.768 0 0 0-2.26 1.758zm35.81-8.247c.48.121.955.248 1.423.382l-1.423-.382zM2.238 195.854c.096-.478.202-.956.308-1.405-.106.507-.212.937-.308 1.405zm3.173-9.499c.183-.392.385-.765.587-1.147-.23.373-.404.755-.587 1.147zm71.207 9.298a67.887 67.887 0 0 1-11.231-8.276 144.191 144.191 0 0 1-3.558 6.317c1.759 1.252 6.904 4.836 13.462 8.678.51-2.218.962-4.454 1.327-6.719zM8.44 226.091a39.5 39.5 0 0 1-.673-1.042c.212.344.433.698.673 1.042zm61.033-51.568.414.411-.414-.411zm4.289 32.961a39.43 39.43 0 0 0 .962-3.278 178.048 178.048 0 0 1-13.924-8.945 639.935 639.935 0 0 1-2.423 3.823c1.452 1.376 6.048 5.495 14.702 10.398.202-.66.452-1.329.683-1.998zm-17.52 11.182c.144 3.153.259 6.622.288 10.235a96.077 96.077 0 0 0 12.415-11.076 49.405 49.405 0 0 0 3.375-6.594c-2-1.138-3.847-2.227-5.404-3.259a65.442 65.442 0 0 1-10.674 10.694zm-43.205-29.1a199.46 199.46 0 0 0 17.222 10.264 192.768 192.768 0 0 0 7.76-10.465 91.805 91.805 0 0 1-13.597 1.023 76.236 76.236 0 0 1-11.385-.822zm40.378-24.293-.202-.058-.116.306c.099-.091.205-.174.318-.248zm-37.878 51.309a76.541 76.541 0 0 1-13.75-8.152l.057.43c.375 0 .77.526 1.135 1.061a21.093 21.093 0 0 0 2.538 3.192c.635.621 1.337 1.185 1.923 1.854a7.307 7.307 0 0 1 1.096 7.903 3.145 3.145 0 0 1-1.259 1.396l.163.258c1.808-1.644 4.655-4.377 8.097-7.942zM1.594 205.927v-.086.124l.192.143a1.38 1.38 0 0 1-.192-.181zm6.626-24.475-.164.258c.157-.1.325-.183.5-.248l-.337-.01zm31.203 5.858a133.163 133.163 0 0 0 5.51-8.973c-3.904 1.242-12.78 3.306-28.848 3.306-2.058 0-4.25 0-6.548-.114.523.242.952.648 1.221 1.156a1.793 1.793 0 0 1-.798 2.121 3.344 3.344 0 0 1-2.404.306 1.175 1.175 0 0 1-.664-.306 1.234 1.234 0 0 1-.24-.716v-.077l-.404.717c1.25.956 2.53 1.911 3.846 2.867 13.367 2.714 26.868.134 29.329-.287zM3.19 197.622c.404.65.818 1.29 1.173 1.978a5.42 5.42 0 0 1 .635 3.823 5.963 5.963 0 0 1-1.452 2.341 1.59 1.59 0 0 1-1.106.66.915.915 0 0 1-.433-.125 75.72 75.72 0 0 0 14.896 8.869 213.36 213.36 0 0 0 5.51-6.011 200.563 200.563 0 0 1-20.194-13.179v.191c.433.239.73 1.071.971 1.453zm2.202-11.267-.125.277.346-.115-.22-.162zM2.7 193.79l-.058.229.596.43a3.89 3.89 0 0 1-.538-.659z"
      fill="#63d1bb" />
    <path
      d="M60.704 169.009a3.51 3.51 0 0 1-.366.507 6.736 6.736 0 0 1-3.327 2.313 3.417 3.417 0 0 1-2.022-.039 3.4 3.4 0 0 1-1.642-1.175 6.325 6.325 0 0 1-1.038-3.173c-11.27 27.17-36.705 52.055-43.84 58.678l.433.602c.462-.956 1.77-1.223 3.692.095a3.31 3.31 0 0 1 1.683 2.16c.024.429-.051.857-.22 1.252a3.275 3.275 0 0 1-.962 1.434l.105.114c9.626-7.788 35.493-30.848 47.504-62.768z"
      fill="#63d1bb" />
    <path
      d="M18.105 232.16a2.892 2.892 0 0 1 2.019.716 2.443 2.443 0 0 1 .673 1.816l1.924.382A152.133 152.133 0 0 0 37.5 221.963a149.584 149.584 0 0 0 31.897-47.487 2.369 2.369 0 0 1-.414.506l-1.115 1.071a3.35 3.35 0 0 1-1.981 1.146.851.851 0 0 1-.423-.067.965.965 0 0 1-.29-.239c-1.191-1.385-.46-3.698-1.566-5.151-.183-.229-.404-.43-.558-.678a2.663 2.663 0 0 1-.471-1.749c-7.491 20.117-20.338 36.545-30.204 47.105a176.621 176.621 0 0 1-17.857 16.657l.308.277.201.048c.356-.726 1.53-1.233 3.078-1.242zm28.175-56.318a109.897 109.897 0 0 0 3.846-7.96 154.327 154.327 0 0 1-34.454 5.227l-.144.124a3.583 3.583 0 0 1 3.096.889 2.738 2.738 0 0 1 .798 3.068 2.986 2.986 0 0 1-1.384 1.338 9.072 9.072 0 0 1-3.491.736l-4.231.324a.964.964 0 0 1-.673-.152l-.145.191c24.502.783 35.012-3.039 36.782-3.785zM1.748 206.108l.26.191c.13.077.28.12.432.125a1.603 1.603 0 0 0 1.106-.66 5.963 5.963 0 0 0 1.452-2.341 5.42 5.42 0 0 0-.635-3.823c-.346-.678-.769-1.328-1.173-1.978-.24-.382-.538-1.214-.962-1.453a39.9 39.9 0 0 0-.75 7.388c0 .755 0 1.5.068 2.245v.086c.059.081.126.155.202.22zm6.789 16.791a7.307 7.307 0 0 0-1.097-7.874c-.586-.669-1.288-1.224-1.923-1.854-.95-.993-1.8-2.075-2.538-3.231-.366-.535-.77-1.013-1.135-1.06a39.585 39.585 0 0 0 5.443 15.434 3.14 3.14 0 0 0 1.25-1.415zm5.519 7.34c.17-.395.245-.824.221-1.252a3.33 3.33 0 0 0-1.683-2.16c-1.923-1.319-3.24-1.08-3.692-.096a40.241 40.241 0 0 0 4.164 4.941c.454-.38.796-.876.99-1.433z"
      fill="#63d1bb" />
    <path
      d="M20.134 232.876a2.896 2.896 0 0 0-2.02-.716c-1.558 0-2.693.525-3.077 1.242 1.808.42 3.76.879 5.77 1.3a2.469 2.469 0 0 0-.147-.982 2.465 2.465 0 0 0-.526-.844z"
      fill="#63d1bb" />
    <path
      d="M1.767 208.421v-.258c-.01.095-.01.172 0 .258zm15.088 8.696.625-1.729-.577-.23a75.766 75.766 0 0 1-14.896-8.868 1.209 1.209 0 0 1-.26-.191l-.192-.144v.316c0 .64.097 1.271.173 1.911v.258a76.603 76.603 0 0 0 13.751 8.152c.866.344 1.289.497 1.376.525zM2.007 206.299l-.26-.191c.078.075.165.139.26.191zm16.146-35.13-.116.086.125-.086h-.01zm-2.491 1.959.115-.095-.115.095zm36.32-5.753-.52-1.758-.432.124a151.26 151.26 0 0 1-32.858 5.438l-.125.086a39.692 39.692 0 0 0-2.26 1.758l-.115.096a154.385 154.385 0 0 0 34.454-5.228l1.856-.516zm2.702 64.154.337-.172-.327-.468c0 .21-.01.382-.01.64zm1.846-2.628c0-3.603-.144-7.082-.288-10.235l-.394.296-1.04-1.481s.52-.383 1.366-1.08c-.355-6.537-.827-11.344-.961-12.586v-.316l-1.837.201s.096.898.23 2.38c.395 4.262 1.136 13.742 1.165 24.168.269-.248.913-.707 1.759-1.347zm-9.79 5.724a40.601 40.601 0 0 0 1.857-.535c0-5.648-.115-12.682-.673-20.862v-.354l-1.846.125a289.892 289.892 0 0 1 .663 21.626zm-8.278 1.424c.154-3.689.269-8.008.269-12.672v-.382h-1.865v2.217c0 4.023-.135 7.741-.27 10.961l1.866-.124zm36.791-33.677a182.534 182.534 0 0 1-13.463-8.678l-.663-.478-1.096 1.472.798.573c1.923 1.377 7.24 5.056 13.924 8.945.173-.649.346-1.213.5-1.834zm-9.251 3.784 1.462 1.118-.54.688a101.066 101.066 0 0 0 5.405 3.259c.244-.58.478-1.163.702-1.749-8.577-4.902-13.202-9.021-14.626-10.388-.317-.306-.471-.468-.49-.487l-1.365 1.242c.057.067.326.344.807.803a62.72 62.72 0 0 0 8.03 6.298l.615-.784z"
      fill="#ffffff" />
    <path
      d="m66.925 207.962.539-.688-1.462-1.118-.615.784a66.665 66.665 0 0 1-9.261 9.451 30.04 30.04 0 0 1-1.365 1.08l1.087 1.481.394-.296a65.38 65.38 0 0 0 10.683-10.694zm2.02 9.863a96.077 96.077 0 0 1-12.415 11.076c-.846.64-1.49 1.108-1.836 1.347l-.298.21.298.431.327.468a35.97 35.97 0 0 0 4.394-2.867 38.633 38.633 0 0 0 9.53-10.665z"
      fill="#ffffff" />
    <path
      d="M60.925 168.369v-.048c.125-1.787-4.481-4.472-7.164-3.249a2.776 2.776 0 0 0-.356.201l.356.105a40.23 40.23 0 0 1 7.164 2.991z"
      fill="#63d1bb" />
    <path
      d="M53.088 165.521c-.25.64-.52 1.281-.78 1.911a6.325 6.325 0 0 0 1.039 3.173 3.41 3.41 0 0 0 3.664 1.214 6.73 6.73 0 0 0 3.327-2.313c.137-.157.26-.327.366-.506l.192-.507a1.705 1.705 0 0 0 0-.143 40.247 40.247 0 0 0-7.126-3.02l-.355-.105a2.467 2.467 0 0 0-.318.248l-.01.048zm16.308 8.926a.888.888 0 0 0 .087-.153c.056-.245.056-.5 0-.745-.096-.688-2.75-5.667-6.731-4.463a.334.334 0 0 0-.14.088.324.324 0 0 0-.081.141 40.411 40.411 0 0 1 6.836 5.132h.029z"
      fill="#63d1bb" />
    <path
      d="M63.03 171.064c.164.248.385.449.558.678 1.116 1.453.375 3.766 1.568 5.151a.95.95 0 0 0 .288.239.853.853 0 0 0 .423.067 3.343 3.343 0 0 0 1.98-1.147l1.117-1.07c.16-.149.3-.319.413-.506a40.366 40.366 0 0 0-6.837-5.132c-.04.612.133 1.219.49 1.72z"
      fill="#63d1bb" />
    <path
      d="m14.518 233.077-.433-.411.433.411zm48.051-63.771a53.438 53.438 0 0 0-1.586-.908c.538.286 1.057.611 1.586.955v-.047z"
      fill="#ffffff" />
    <path
      d="M32.365 216.42c9.866-10.513 22.704-26.979 30.204-47.105-.52-.315-1.048-.631-1.586-.956l-.048.125a1.776 1.776 0 0 1-.193.506c-12.001 31.919-37.868 54.979-47.532 62.778.289.286.587.573.885.85l.432.411a176.555 176.555 0 0 0 17.838-16.609z"
      fill="#ffffff" />
    <path
      d="m60.896 168.512-.192.507c.089-.158.154-.329.192-.507zm8.577 6.011-.067-.066.067.066zm1.347 1.319c-.298-.315-.616-.611-.962-.955.317.306.615.621.962.955zm-1.433-1.366A149.582 149.582 0 0 1 37.5 221.963a151.856 151.856 0 0 1-14.77 13.13c.808.153 1.615.297 2.423.431a154.143 154.143 0 0 0 11.703-10.322v-2.217h1.846v.382l.058-.057c2.327-2.351 4.808-5.036 7.423-8.037-.044-.739-.093-1.491-.144-2.255l1.846-.125v.354a153.272 153.272 0 0 0 5.616-7.148c-.134-1.482-.231-2.332-.231-2.38l1.837-.201v.316a186.72 186.72 0 0 0 2.192-3.164c-.48-.458-.75-.745-.807-.802l1.365-1.243s.173.182.49.488a653.781 653.781 0 0 0 2.424-3.823l-.798-.573 1.096-1.472.663.478a137.526 137.526 0 0 0 3.558-6.317c-.538-.507-.846-.822-.904-.879l1.347-1.262.452.44a138.923 138.923 0 0 0 4.577-9.825c-.308-.315-.606-.63-.962-.955l-.413-.411-.068-.057.068.019zM10.085 187.53l-.308 1.453c1.087.229 2.173.411 3.25.573 3.769.558 7.575.833 11.386.822a91.67 91.67 0 0 0 13.597-1.023c1.375-.21 2.173-.372 2.202-.382l-.385-1.796-.404.133c-2.461.421-15.962 3.001-29.338.22z"
      fill="#ffffff" />
    <path
      d="M76.926 193.675a65.384 65.384 0 0 1-10.674-7.989l-.452-.44-1.375 1.252c.058.067.365.373.904.879a67.826 67.826 0 0 0 11.27 8.276c.125-.697.22-1.319.327-1.978zm-23.712-28.469-.184-.048.184.057v-.009zM7.44 224.581l.318.488-.308-.488h-.01z"
      fill="#ffffff" />
    <path
      d="M52.309 167.442a2.476 2.476 0 0 1 .788-1.911l.116-.306-.183-.057a57.666 57.666 0 0 0-1.423-.383h-.183l-.394.956.433-.124.519 1.758-1.856.526a102.508 102.508 0 0 1-3.846 7.96l.279-.124.817 1.644a19.1 19.1 0 0 1-2.433.956c-1.673 3.029-3.596 6.02-5.52 8.973l.404-.076.385 1.797s-.827.172-2.202.382a187.737 187.737 0 0 1-7.76 10.464l.702.363-.846 1.635-1.03-.536a230.148 230.148 0 0 1-5.423 6.442l.673.363-.865 1.624-1.058-.563a245.333 245.333 0 0 1-5.51 6.011l.577.229-.625 1.73c-.086 0-.539-.201-1.318-.535a226.489 226.489 0 0 1-8.087 7.979l.318.488c.221.344.442.697.673 1.042 7.164-6.652 32.608-31.528 43.878-58.707z"
      fill="#ffffff" />
    <path d="M53.088 165.512a2.47 2.47 0 0 0-.79 1.911c.27-.64.53-1.281.78-1.911h.01z"
      fill="#ffffff" />
    <path
      d="M15.527 173.252a8.136 8.136 0 0 0-4.75 3.326 8.497 8.497 0 0 0-1.163 2.361.634.634 0 0 0 0 .372.328.328 0 0 0 .096.144 40.364 40.364 0 0 1 5.817-6.203z"
      fill="#63d1bb" />
    <path
      d="m10.316 179.608 4.23-.325a9.063 9.063 0 0 0 3.49-.736 2.984 2.984 0 0 0 1.386-1.338 2.724 2.724 0 0 0 .092-1.66 2.742 2.742 0 0 0-.89-1.408 3.583 3.583 0 0 0-3.097-.889 40.372 40.372 0 0 0-5.913 6.203.968.968 0 0 0 .702.153zm-2.808 2.475a2.365 2.365 0 0 0-.75.841 2.098 2.098 0 0 0-.097 1.051c.443-.777.908-1.535 1.395-2.274-.19.116-.373.244-.548.382zm-.597 2.685c.184.169.416.276.664.306.812.202 1.67.093 2.404-.306a1.788 1.788 0 0 0 .798-2.121 2.63 2.63 0 0 0-1.221-1.157h-.962a2.73 2.73 0 0 0-.5.249 40.803 40.803 0 0 0-1.394 2.274v.077c.003.242.076.477.211.678zM2.7 193.79a39.537 39.537 0 0 1 2.567-7.13c-2.25.899-4.183 4.588-2.567 7.13z"
      fill="#63d1bb" />
    <path
      d="M4.296 195.214c.616.206 1.28.225 1.906.055a3.27 3.27 0 0 0 1.613-1.011 4.162 4.162 0 0 0 .75-3.679c-.125-.526-.24-1.405-.452-2.208-.836-.612-1.673-1.223-2.49-1.854l-.346.115a39.527 39.527 0 0 0-2.568 7.129c.154.242.335.466.539.669l1.048.784z"
      fill="#63d1bb" />
    <path
      d="M9.21 181.366c.123.027.242.068.355.124 2.299.077 4.491.115 6.549.115 16.049 0 24.925-2.055 28.848-3.307a18.946 18.946 0 0 0 2.433-.955l-.817-1.644-.28.124c-1.778.736-12.288 4.559-36.79 3.823-.43.567-.843 1.147-1.24 1.739v.057h.288c.208-.081.433-.107.654-.076z"
      fill="#ffffff" />
    <path
      d="M8.556 181.461h.961a1.544 1.544 0 0 0-.355-.124 1.318 1.318 0 0 0-.606.124zm-2.298 3.231c-.087.162-.173.334-.26.506l.26-.506z"
      fill="#ffffff" />
    <path
      d="M7.017 186.574c.548.201.875.956 1.097 1.826a186.452 186.452 0 0 0 20.972 12.901l1.029.535.846-1.634-.702-.363a199.492 199.492 0 0 1-17.222-10.264 65.483 65.483 0 0 1-3.25-.573l.307-1.453a333.417 333.417 0 0 1-3.846-2.867l-.26.507c-.202.382-.403.755-.586 1.146l.221.172a2.3 2.3 0 0 1 1.394.067z"
      fill="#ffffff" />
    <path
      d="M7.017 186.574a2.304 2.304 0 0 0-1.394 0c.817.631 1.654 1.243 2.49 1.854-.23-.879-.548-1.653-1.096-1.854zM2.642 194c0 .143-.058.287-.096.43l.096-.43z"
      fill="#ffffff" />
    <path
      d="m23.47 209.721.866-1.625-.673-.363a190.31 190.31 0 0 1-19.367-12.519 2.08 2.08 0 0 1-.202-.086 4.572 4.572 0 0 1-.856-.679L2.652 194l-.096.43c-.106.468-.222.956-.308 1.405v.124a200.714 200.714 0 0 0 20.194 13.179l1.029.583z"
      fill="#ffffff" />
    <path d="M4.104 195.128c.065.032.133.061.201.086l-1.048-.765c.254.259.538.487.847.679z"
      fill="#ffffff" />
    <path
      d="M78.003 182.943c-.135-.344-.26-.688-.395-1.023a13.422 13.422 0 0 0-2.336-4.233c-.79-.86-2.885-2.332-4.02-1.367a40.13 40.13 0 0 1 6.472 9.194c.038-.862.13-1.721.279-2.571z"
      fill="#63d1bb" />
    <path
      d="M72.435 182.532a48.122 48.122 0 0 0 4.808 8.926c.116-.956.23-1.978.327-2.972.096-.994.144-2.074.202-3.02a40.122 40.122 0 0 0-6.472-9.194 1.57 1.57 0 0 0-.384.526c-.721 1.433.99 4.453 1.519 5.734zm-51.138 55.534-.961-.612.96.612zm60.658-31.375c0 .43-.067.851-.115 1.271.048-.42.086-.85.115-1.271zM56.03 241.047l-1.163.411 1.163-.411zm24.79-27.466c-.077.306-.173.602-.26.908.087-.306.212-.602.26-.908zm-42.906 29.855-1.087-.124 1.087.124zm10.289-.315-1.106.153 1.106-.153zm-33.176-9.719-.202-.048.164.134.038-.086zm64.976-20.231.817.401c0-.143.068-.287.096-.43-.298.078-.61.088-.913.029zm1.375-16.944v-.268a1.768 1.768 0 0 1-.606-.048l.606.316zm.192 1.089c.048.306.106.602.145.956-.04-.354-.097-.65-.145-.956zm-59.571 40.645-.394.296.702.401a.952.952 0 0 1-.308-.697z"
      fill="#63d1bb" />
    <path d="m56.29 240.952-.26.104.26-.104zm-1.894.669.47-.163-.47.163z" fill="#ffffff" />
    <path
      d="m55.453 231.968-.432-.611-.337.172c0 3.335-.087 6.737-.288 10.092l.47-.163 1.164-.411.26-.105c.173-3.249.25-6.537.25-9.757l-1.087.783z"
      fill="#ffffff" />
    <path d="m46.49 243.359.607-.085-.606.076v.009z" fill="#ffffff" />
    <path
      d="M46.74 234.625c0 3.488-.133 6.413-.25 8.716l.607-.077 1.106-.153h.144c.115-2.398.212-5.418.24-9.002-.615.182-1.23.354-1.846.516z"
      fill="#ffffff" />
    <path d="m36.26 243.255.567.066-.567-.066z" fill="#ffffff" />
    <path
      d="M36.539 236.154c-.116 2.647-.241 4.96-.366 6.814v.096a.5.5 0 0 1 0 .181l.568.067 1.086.124h.125c.135-1.968.279-4.491.404-7.425l-1.817.143z"
      fill="#ffffff" />
    <path
      d="M36.26 243.245a.55.55 0 0 0 0-.181v-.096.277zm45.743-37.127v.573c-.03-.191-.01-.382 0-.573z"
      fill="#ffffff" />
    <path
      d="M74.762 204.216c2.23 1.3 4.606 2.609 7.068 3.88v-.134c0-.42.077-.85.115-1.271v-.573a144.087 144.087 0 0 1-6.731-3.737c-.115.612-.288 1.176-.452 1.835z"
      fill="#ffffff" />
    <path
      d="m80.829 213.572-.01.009.01-.009zm-.519 1.806c.087-.296.174-.592.25-.889-.086.297-.163.593-.25.889z"
      fill="#ffffff" />
    <path
      d="M79.676 213.008a119.656 119.656 0 0 1-6.625-3.517 62.515 62.515 0 0 1-.702 1.749l1.23.688c.174-.267.337-.545.49-.812l1.607.956c-.154.258-.308.516-.471.774 1.596.847 3.307 1.707 5.135 2.58.086-.296.173-.593.25-.889.076-.296.182-.602.259-.908l-.817-.401a.766.766 0 0 1-.356-.22z"
      fill="#ffffff" />
    <path
      d="M59.415 228.509a35.852 35.852 0 0 1-4.394 2.867l.432.612 1.087-.774c3.375-2.456 13.606-10.283 18.636-18.397.163-.258.317-.516.47-.774l-1.605-.956c-.154.268-.317.535-.49.813a42.108 42.108 0 0 1-4.607 5.906 38.611 38.611 0 0 1-9.53 10.703z"
      fill="#ffffff" />
    <path d="m19.893 237.215.395.239-.385-.248-.01.009zm1.702 1.032-.307-.172.307.172z"
      fill="#ffffff" />
    <path
      d="M22.365 237.53c.095-.042.195-.074.298-.095.769-.586 1.599-1.223 2.49-1.911a95.93 95.93 0 0 1-2.423-.43 115.201 115.201 0 0 1-2.827 2.131l.385.248.96.612.309.172.394-.297a.545.545 0 0 1 .14-.277.547.547 0 0 1 .274-.153z"
      fill="#ffffff" />
    <path
      d="m21.999 237.96.673-.506a1.439 1.439 0 0 0-.298.096.534.534 0 0 0-.375.41zm59.408-41.714c.067.363.134.716.192 1.08-.086-.364-.125-.727-.192-1.08z"
      fill="#ffffff" />
    <path
      d="M80.128 195.539a54.543 54.543 0 0 1-3.212-1.912c-.096.66-.192 1.329-.298 1.988a76.975 76.975 0 0 0 5.135 2.867v-.277c0-.306-.096-.612-.144-.956-.048-.344-.125-.726-.192-1.08l-.645-.258a1.735 1.735 0 0 1-.644-.372z"
      fill="#ffffff" />
    <path d="m80.003 213.171-.346-.172a.774.774 0 0 0 .346.172z" fill="#63d1bb" />
    <path
      d="M20.807 234.692c-2.02-.42-3.972-.869-5.77-1.3v.086c-.337.746.115 1.682 1.693 2.504l1.49.774a2.026 2.026 0 0 0 1.529.306l.212.134c.836-.612 1.788-1.328 2.827-2.131l-1.981-.373zm15.413 8.276c.126-1.854.25-4.157.367-6.814-.914.048-1.837.086-2.76.096a50.319 50.319 0 0 1-8.655-.746 93.853 93.853 0 0 1-2.49 1.912l-.673.506a.944.944 0 0 0 .307.698c1.222 1.462 5.626 3.631 6.405 3.88.96.296 1.923.506 2.885.717 1.38.408 2.832.518 4.259.325.183 0 .395-.115.433-.297h-.058l-.02-.277zm1.819.478.654.048c.149.297.383.543.673.707a6.407 6.407 0 0 0 6.404-.143.967.967 0 0 0 .279-.23.763.763 0 0 0 .106-.43h.336c.116-2.303.212-5.237.25-8.716a47.92 47.92 0 0 1-8.28 1.367 439.57 439.57 0 0 1-.422 7.397zm10.308-.354.644-.114c.433 1.013 2 1.357 3.068 1.118a2.983 2.983 0 0 0 1.52-.879c.407-.438.672-.988.759-1.577h.058c.192-3.355.278-6.757.288-10.092a36.445 36.445 0 0 1-6.097 2.59 194.25 194.25 0 0 1-.24 8.954zm23.982-31.89a49.11 49.11 0 0 1-3.375 6.594 41.97 41.97 0 0 0 4.606-5.906l-1.231-.688zm7.934 4.329v-.153a136.694 136.694 0 0 1-5.135-2.58c-4.933 8.104-15.213 15.94-18.588 18.396 0 3.211-.077 6.508-.25 9.758l.22-.086a.866.866 0 0 0 .703.248 16.749 16.749 0 0 0 10.097-4.033 46.936 46.936 0 0 0 7.414-8.133c2.692-3.478 5.433-7.205 6.029-11.554a2.073 2.073 0 0 0-.365-1.796 1.077 1.077 0 0 0-.125-.067zm1.557-7.406c-2.461-1.262-4.808-2.581-7.067-3.88a162.927 162.927 0 0 1-.962 3.277 84.154 84.154 0 0 1-.721 1.998 130.169 130.169 0 0 0 6.625 3.517l.346.172c.316.076.646.076.962 0 .305-.065.595-.185.856-.354.913-.774 1.51-4.348-.04-4.73zm.193-2.237a.962.962 0 0 0 .49-.353 5.286 5.286 0 0 0 .702-4.31c-.163-.956-.471-2.37-1.481-2.495v-.229a79.57 79.57 0 0 1-5.135-2.867 80.761 80.761 0 0 1-1.365 6.69 165.29 165.29 0 0 0 6.73 3.736c.049-.019.059-.095.059-.172zm-1.241-9.977c.195.063.4.093.606.086a4.183 4.183 0 0 0 .48-2.398 181.989 181.989 0 0 0-3.846-10.627 20.194 20.194 0 0 0-.28 2.561c-.056.955-.095 1.911-.201 3.02-.105 1.108-.211 1.978-.326 2.972-.09.726-.183 1.452-.28 2.179.962.611 2.078 1.242 3.212 1.911l.635.296z"
      fill="#46c1ae" />
    <path
      d="m80.772 195.911-.606-.334c.178.151.384.265.606.334zm-27.204-30.046a10.595 10.595 0 0 0-3.102-8.384 10.734 10.734 0 0 0-3.877-2.464 10.785 10.785 0 0 0-4.56-.62c-.211 0-.163 1.061 0 1.042a10.336 10.336 0 0 1 4.357.413 10.28 10.28 0 0 1 3.786 2.18 10.2 10.2 0 0 1 2.529 3.55 10.15 10.15 0 0 1 .81 4.274s0 .057 0 0l.057.009z"
      fill="#63d1bb" />
  </g>
</svg>
