<svg viewBox="0 0 238 34" xmlns="http://www.w3.org/2000/svg" style="display:block"
  class="Logowrapper__Logo-sc-x306f9-0 gSzPIV">
  <path fill="#1937ff"
    d="M0 32.82V1.65h17.29v31.17h-4.86V6.17H4.88v26.65H0zM30.44.95c-2.84 0-5.07 1.48-6.7 4.44-1.62 2.98-2.43 6.9-2.43 11.74 0 5 .78 9 2.35 11.95 1.55 2.96 3.8 4.44 6.77 4.44 3.03 0 5.4-1.55 7.1-4.65 1.62-2.96 2.44-6.89 2.44-11.78 0-4.84-.84-8.74-2.52-11.7C35.77 2.43 33.43.95 30.44.95zm-4.5 16.22c0-3.42.38-6.2 1.15-8.34.74-2.15 1.86-3.23 3.35-3.23 1.65 0 2.84 1.1 3.58 3.27.66 1.91.99 4.65.99 8.22 0 3.44-.38 6.26-1.15 8.47-.76 2.2-1.9 3.3-3.42 3.3-1.47 0-2.58-1.1-3.35-3.34a26.03 26.03 0 0 1-1.15-8.35zm28.6-15.52h4.88v31.17h-4.88V17.47h-4.4a7.5 7.5 0 0 1-5.33-2.04 6.43 6.43 0 0 1-2.24-5V1.64h4.84v8.18c0 .83.24 1.5.73 2 .67.66 1.68.99 3.02.99h3.38V1.65zm17.42 31.17h-4.85V6.26h-4.64v-4.6h14.17v4.6h-4.68v26.56zM80.4 1.65h7.88c2.33 0 4.16.56 5.5 1.68 1.68 1.4 2.52 3.6 2.52 6.62l2.52 22.87h-4.88L92.4 17.3h-7.63l-.53 15.52h-4.87l1.02-31.17zm4.46 11.08h6.99c-.23-2.4-.62-4.06-1.17-4.96-.66-1.04-1.76-1.55-3.3-1.55h-2.34l-.18 6.51zm31.47 19.54V1.1h5.5c3.68 0 6.33 1.61 7.96 4.82a15.47 15.47 0 0 1 1.57 7.14c0 3.87-.64 6.82-1.93 8.83-1.13 1.72-2.56 2.59-4.3 2.59a5.3 5.3 0 0 1-3.76-1.64v9.43h-5.04zm5-26.92v9.62c0 1.5.23 2.66.7 3.48.44.8 1 1.2 1.65 1.2.69 0 1.28-.45 1.78-1.36.5-.91.74-2.21.74-3.9 0-3.12-.38-5.42-1.16-6.89-.77-1.46-1.84-2.2-3.21-2.2a4.57 4.57 0 0 1-.5.05zM142.97.4c-2.84 0-5.07 1.48-6.7 4.44-1.62 2.99-2.43 6.9-2.43 11.74 0 5.01.78 9 2.36 11.95 1.54 2.96 3.8 4.44 6.77 4.44 3.02 0 5.38-1.55 7.09-4.65 1.62-2.96 2.44-6.89 2.44-11.78 0-4.84-.84-8.74-2.52-11.7C148.3 1.88 145.96.4 142.97.4zm-4.5 16.22c0-3.42.39-6.2 1.15-8.34.74-2.15 1.85-3.23 3.35-3.23 1.65 0 2.84 1.1 3.58 3.27.66 1.91.99 4.65.99 8.22 0 3.44-.38 6.26-1.15 8.47s-1.9 3.31-3.42 3.31c-1.47 0-2.58-1.12-3.35-3.35a26.07 26.07 0 0 1-1.15-8.35zm22.26.17c0 3.3.9 6 2.72 8.1 1.95 2.23 4.68 3.35 8.2 3.35v4.99c-5.12 0-9.14-1.57-12.05-4.7-2.78-2.98-4.17-6.88-4.17-11.7 0-4.98 1.28-8.89 3.85-11.73 2.8-3.13 6.9-4.7 12.29-4.7v5c-3.6 0-6.35 1.1-8.24 3.3-1.74 2-2.6 4.7-2.6 8.1zm18.95 0c0 3.3.9 6 2.72 8.1 1.94 2.23 4.68 3.35 8.2 3.35v4.99c-5.12 0-9.14-1.57-12.05-4.7-2.78-2.98-4.17-6.88-4.17-11.7 0-4.98 1.28-8.89 3.84-11.73 2.81-3.13 6.91-4.7 12.3-4.7v5c-3.6 0-6.35 1.1-8.24 3.3-1.74 2-2.6 4.7-2.6 8.1zM212.37 0l1.27 32.27h-4.96l-.82-21.17-8.33 8.35.04 12.82h-4.95V1.1h4.95v11.51L212.37 0zm24.03 0 1.27 32.27h-4.96l-.83-21.17-8.32 8.35.04 12.82h-4.95V1.1h4.95v11.51L236.4 0z"
      />
</svg>
