<svg width="173" height="38" xmlns="http://www.w3.org/2000/svg"><path d="M158.095 32.477c-.798-.508.139-1.73 2.036-2.656 2.791-1.36 2.759-1.75-.82-9.915l-3.306-7.543h1.7c2.017 0 2.411.527 4.761 6.375 1.596 3.969 2.462 5.108 2.462 3.238 0-1.304 2.965-8.781 3.657-9.221.643-.409 3.343-.539 3.343-.161 0 .127-1.592 4.121-3.538 8.875-3.884 9.49-5.241 11.4-8.095 11.386-.89-.004-1.88-.174-2.2-.378zm-108.34-5.301c-2.667-2.145-3.568-3.067-3.745-11.665l-.168-8.148 1.665-.02c.594-.007 1.381-.01 1.636.228.49.46.285 1.691.285 4.11 0 2.73.07 2.802 1.177 2.026.66-.462 2.726-1.134 4.242-.844 1.91.364 1.98.573 3.361 1.342 1.679.935 3.22 3.673 3.22 6.408 0 2.6-.802 4.436-2.72 6.227-1.842 1.721-6.814 2.056-8.953.336zm6.945-3.04c2.84-2.84.795-8.273-3.113-8.273-3.72 0-5.627 4.999-3.123 8.182 1.42 1.806 4.477 1.85 6.236.09zm10.964 3.2c-2.012-1.08-4.004-4.905-4.004-7.254 0-2.35 1.76-5.212 3.772-6.292 2.26-1.212 6.227-1.212 8.503 0 2.209 1.175 3.976 4.208 3.976 6.823s-1.933 5.647-4.141 6.823c-3.077 1.086-5.556 1.144-8.106-.1zm8.464-3.445c1.811-2.153 1.583-4.85-.333-6.766-1.082-1.082-2.433-1.594-3.786-1.594-1.352 0-2.637.313-3.72 1.395-1.915 1.916-2.01 4.845-.2 6.998 1.078 1.28 1.922 1.67 3.721 1.67 1.8 0 3.24-.423 4.318-1.703zm4.554 3.972c3.175-4.526 3.815-5.341 5.608-7.991-2.43-3.48-2.787-4.12-5.4-7.675l1.303.166c1.388.176 2.17.36 3.258 1.525.784.839 1.431 2.027 1.735 2.5.805 1.256 1.003 1.289 2.204-.287 1.809-2.371 2.374-3.738 4.288-3.738.962 0 1.75.094 1.75.21 0 .115-4.253 6.053-2.89 4.06l-2.36 3.452c1.267 1.942 2.54 3.642 3.886 5.684l1.454 2.155-2.303.01c-1.375.006-1.147.025-2.542-2.172-2.544-4.005-2.619-3.201-3.046-2.564-.62.923-1.617 2.28-2.295 3.277-1.056 1.555-.688 1.31-2.59 1.46-1.22.098-2.148.065-2.06-.072zm21.449-.286c-.85-.42-2.032-1.627-2.625-2.682-.977-1.738-1.078-2.655-1.078-9.759v-7.84l1.375.158c1.331.154 1.38.265 1.522 3.534.082 1.856.307 3.367.5 3.359.194-.01.79-.347 1.323-.75 1.414-1.07 4.557-.548 6.527.653 1.84 1.122 3.715 3.922 3.715 6.269s-1.5 5.428-3.34 6.55c-2.005 1.222-5.679 1.613-7.92.508zm7.002-3.753c1.811-2.152 1.749-4.584-.167-6.5-3.057-3.057-7.288-1.148-7.288 3.289 0 4.503 4.674 6.517 7.455 3.211zm11.545 3.833c-4.232-1.881-5.867-6.672-3.761-11.023 1.29-2.665 3.539-3.98 6.81-3.984 4.022-.003 6.5 2.286 6.818 6.299l.133 1.664-5.625.14c-6.219.157-6.605.415-4.423 2.952 1.245 1.447 2.216 1.58 7.785 1.068 1.339-.124 1.778.042 1.913.722.126.632-.438 1.16-1.987 1.864-2.502 1.135-5.516 1.252-7.663.298zm6.75-9.758c-.094-2.236-2.33-2.715-4.477-2.592-1.349.078-3.195.727-3.523 3.083-.036.258 1.8.473 4 .473 3.616 0 4.036-.094 4-.964zm6.5 2.214v-7.75h1.15c1.398 0 2.35.871 2.35 2.152 0 .8.233.703 1.45-.6.903-.966 1.941-1.552 2.75-1.552 1.147 0 1.3.2 1.3 1.718 0 1.56-.145 1.733-1.576 1.875-2.646.263-3.644 2.192-3.85 7.442l-.174 4.465h-3.4zm11.5 0c0-6.357.127-7.75.709-7.75 1.47 0 2.29.646 2.29 1.803.218 1.31-.639 1.236.016.81 0-.882 3.158-2.613 4.329-2.613.987 0 1.156.254 1.156 1.75 0 1.391-.197 1.75-.96 1.75-2.999 0-4.04 1.991-4.04 7.725v4.275h-3.5z" style="fill:#eb1550;stroke-width:.5"/><circle style="fill:#eb1550;fill-opacity:1;stroke-width:0" cx="26.421" cy="11.927" r="4"/><circle style="fill:#eb1550;fill-opacity:1;stroke-width:0" cx="26.455" cy="26.22" r="4"/><circle style="fill:#eb1550;fill-opacity:1;stroke-width:0" cx="19.091" cy="18.997" r="4"/><circle style="fill:#eb1550;fill-opacity:1;stroke-width:0" cx="12.055" cy="12.008" r="4"/><circle style="fill:#eb1550;fill-opacity:1;stroke-width:0" cx="4.691" cy="19.044" r="4"/><circle style="fill:#eb1550;fill-opacity:1;stroke-width:0" cx="11.914" cy="26.126" r="4"/><circle style="fill:#eb1550;fill-opacity:1;stroke-width:0" cx="19.184" cy="33.303" r="4"/><circle style="fill:#eb1550;fill-opacity:1;stroke-width:0" cx="33.584" cy="18.997" r="4"/><circle style="fill:#a6cd3b;fill-opacity:1;stroke-width:0" cx="19.184" cy="4.691" r="4"/></svg>