<?xml version="1.0" standalone="no"?>
<!DOCTYPE svg PUBLIC "-//W3C//DTD SVG 20010904//EN"
 "http://www.w3.org/TR/2001/REC-SVG-20010904/DTD/svg10.dtd">
<svg version="1.0" xmlns="http://www.w3.org/2000/svg"
 width="1248.000000pt" height="1248.000000pt" viewBox="0 0 1248.000000 1248.000000"
 preserveAspectRatio="xMidYMid meet">
<metadata>
Created by potrace 1.14, written by Peter Selinger 2001-2017
</metadata>
<g transform="translate(0.000000,1248.000000) scale(0.100000,-0.100000)"
fill="#000000" stroke="none">
<path d="M9499 12476 c-2 -2 -33 -6 -69 -10 -76 -7 -108 -12 -210 -32 -41 -9
-85 -18 -97 -20 -12 -2 -35 -9 -50 -15 -16 -6 -28 -9 -28 -8 0 2 -107 -28
-135 -39 -8 -3 -17 -6 -20 -7 -3 -1 -12 -5 -20 -8 -31 -13 -75 -30 -85 -33
-27 -7 -159 -75 -210 -109 -54 -36 -165 -137 -165 -150 0 -3 -28 -34 -63 -69
-107 -108 -153 -226 -127 -329 11 -42 13 -49 44 -119 17 -39 20 -61 9 -72 -4
-4 -8 -17 -9 -29 0 -12 -4 -35 -8 -52 -3 -16 -9 -40 -11 -52 -3 -13 -7 -33
-10 -45 -3 -13 -8 -36 -11 -53 -3 -16 -9 -48 -15 -70 -5 -22 -12 -49 -14 -60
-3 -11 -8 -33 -11 -50 -3 -16 -14 -66 -24 -110 -30 -126 -42 -178 -46 -200 -2
-11 -10 -44 -18 -74 -8 -30 -13 -58 -10 -63 3 -4 1 -8 -3 -8 -5 0 -9 -8 -10
-19 -1 -10 -13 -65 -28 -122 -15 -57 -28 -111 -30 -119 -2 -8 -13 -53 -25
-100 -12 -47 -23 -94 -25 -105 -2 -11 -12 -51 -24 -88 -11 -38 -22 -81 -25
-95 -5 -27 -91 -341 -160 -584 -20 -71 -36 -135 -36 -143 0 -8 -4 -15 -8 -15
-5 0 -9 -6 -9 -12 0 -20 -20 -88 -99 -353 -8 -27 -16 -57 -18 -65 -2 -8 -9
-28 -15 -45 -7 -16 -15 -41 -18 -55 -2 -14 -13 -52 -24 -85 -11 -33 -23 -71
-25 -85 -3 -13 -10 -30 -16 -37 -6 -7 -8 -13 -5 -13 3 0 -5 -33 -19 -72 -14
-40 -28 -82 -30 -93 -9 -35 -10 -39 -18 -65 -4 -14 -11 -34 -16 -45 -4 -11
-29 -87 -55 -170 -26 -82 -60 -188 -77 -235 -16 -47 -33 -98 -38 -115 -4 -16
-22 -73 -40 -125 -17 -52 -33 -99 -34 -105 -2 -5 -8 -23 -14 -38 -7 -16 -12
-31 -12 -34 0 -5 -108 -314 -123 -353 -6 -14 -11 -29 -13 -35 -1 -5 -41 -112
-88 -236 -47 -125 -86 -232 -86 -238 0 -6 -5 -11 -12 -11 -6 0 -9 -3 -5 -6 5
-5 -6 -40 -38 -119 -4 -11 -9 -24 -11 -30 -1 -5 -8 -23 -15 -40 -6 -16 -13
-34 -15 -40 -1 -5 -10 -28 -20 -50 -10 -22 -19 -48 -21 -58 -2 -10 -10 -31
-18 -48 -9 -16 -13 -29 -9 -29 4 0 2 -6 -3 -12 -5 -7 -22 -49 -37 -93 -15 -44
-32 -89 -36 -100 -5 -11 -13 -33 -17 -49 -14 -46 -26 -41 -56 21 -15 32 -56
112 -91 178 -36 66 -116 221 -178 345 -62 124 -116 227 -120 228 -5 2 -8 9 -8
14 0 6 -27 66 -60 134 -33 67 -60 125 -60 128 0 3 -20 48 -44 100 -25 52 -90
208 -146 348 -55 139 -105 262 -109 273 -5 11 -15 36 -22 55 -6 19 -20 53 -29
75 -10 22 -32 78 -49 125 -18 47 -36 94 -41 105 -11 23 -33 78 -34 85 -1 6
-25 67 -36 95 -15 35 -47 116 -120 305 -39 102 -76 194 -80 205 -5 11 -39 97
-75 190 -83 213 -134 343 -146 373 -9 21 -18 45 -38 95 -5 12 -16 38 -24 57
-8 19 -27 67 -41 105 -15 39 -33 84 -41 100 -7 17 -32 77 -55 135 -23 58 -47
116 -53 130 -6 14 -11 27 -12 30 -2 5 -20 48 -38 90 -6 14 -11 27 -12 30 -1 3
-6 16 -12 30 -6 14 -28 66 -48 115 -21 50 -46 110 -57 135 -35 77 -46 104 -64
150 -10 25 -25 56 -33 70 -9 13 -14 24 -12 25 2 0 -10 31 -27 68 -18 38 -32
72 -32 76 0 4 -16 40 -35 80 -19 39 -35 73 -35 75 0 4 -41 95 -111 244 -22 45
-39 85 -39 87 0 3 -26 59 -59 124 -32 66 -57 122 -55 124 3 2 -2 10 -11 17 -8
7 -15 17 -15 22 0 6 -39 89 -87 185 -78 159 -87 181 -90 242 -4 88 -5 91 -15
91 -5 0 -7 4 -3 9 6 11 -25 81 -37 81 -4 0 -8 6 -8 13 0 19 -71 81 -139 121
-34 19 -61 33 -61 29 0 -3 -6 0 -14 6 -18 15 -200 59 -236 57 -17 -1 -30 1
-30 4 0 9 -243 6 -257 -3 -8 -5 -13 -4 -13 3 0 6 -4 9 -8 6 -5 -3 -31 -8 -58
-12 -61 -8 -68 -9 -159 -29 -11 -2 -51 -14 -90 -25 -38 -12 -76 -22 -82 -23
-7 0 -13 -4 -13 -9 0 -4 -7 -8 -16 -8 -25 0 -190 -87 -253 -132 -63 -47 -181
-166 -181 -184 0 -3 -8 -18 -18 -32 -31 -45 -175 -395 -173 -422 0 -3 -7 -30
-16 -60 -9 -30 -17 -62 -18 -70 0 -9 -4 -20 -7 -25 -3 -6 -9 -26 -12 -45 -10
-61 -17 -93 -21 -100 -2 -3 -7 -32 -10 -65 -7 -58 -12 -90 -15 -90 0 0 -3 -22
-6 -50 -3 -27 -8 -72 -10 -100 -8 -74 -8 -630 0 -700 3 -33 8 -87 11 -120 2
-33 6 -73 8 -90 3 -16 8 -64 12 -105 4 -41 9 -84 11 -95 3 -11 7 -38 9 -60 9
-72 15 -120 20 -150 3 -16 8 -46 10 -65 8 -58 16 -115 20 -141 3 -25 15 -121
20 -174 2 -16 6 -55 10 -85 10 -84 13 -119 19 -195 3 -38 7 -86 10 -105 3 -19
8 -75 12 -125 8 -128 12 -188 19 -285 7 -113 15 -261 20 -392 2 -59 6 -112 10
-117 3 -6 1 -11 -5 -11 -6 0 -8 -5 -4 -11 7 -13 15 -241 17 -541 1 -109 6
-198 10 -198 4 0 3 -8 -2 -19 -6 -10 -8 -21 -5 -23 2 -3 7 -162 9 -354 5 -338
7 -417 20 -834 4 -107 8 -241 9 -296 2 -56 6 -106 10 -112 3 -6 2 -13 -4 -17
-6 -4 -8 -11 -4 -16 6 -10 16 -234 18 -391 1 -43 3 -78 6 -78 3 0 5 -42 6 -93
1 -50 4 -159 8 -242 12 -271 17 -369 21 -460 6 -144 15 -332 20 -445 11 -247
17 -372 21 -480 2 -63 6 -158 8 -210 7 -141 17 -407 21 -555 13 -449 17 -598
19 -743 l3 -163 -31 -42 c-98 -130 -130 -259 -98 -387 15 -59 69 -170 83 -170
5 0 9 -4 9 -10 0 -16 80 -101 180 -189 41 -37 165 -122 183 -125 6 -2 19 -6
27 -9 46 -18 113 -37 147 -41 21 -2 38 -5 38 -6 0 -7 185 -11 260 -6 75 6 190
21 190 26 0 1 11 4 25 5 77 11 334 105 375 137 6 5 39 27 75 50 66 42 168 138
206 193 34 50 72 137 81 190 15 80 3 900 -22 1640 -3 94 -8 226 -10 295 -6
167 -13 351 -19 485 -8 163 -17 386 -22 500 -10 252 -13 318 -18 430 -3 66 -8
174 -11 240 -3 66 -8 172 -11 235 -3 63 -7 158 -9 210 -8 230 -16 363 -21 371
-3 5 0 9 6 9 6 0 8 5 4 11 -4 6 -8 61 -10 123 -2 61 -6 172 -9 246 -6 139 -10
280 -19 574 -3 93 -8 171 -10 174 -3 2 -1 12 4 22 5 10 7 20 3 23 -3 3 -7 118
-8 254 -2 136 -1 241 2 233 3 -8 12 -31 20 -50 26 -61 31 -73 74 -180 23 -58
42 -111 42 -117 0 -7 4 -13 9 -13 4 0 8 -9 8 -19 0 -11 4 -22 9 -25 5 -3 12
-18 16 -33 3 -15 15 -45 25 -68 10 -22 30 -69 45 -105 14 -36 32 -79 40 -95
13 -29 36 -84 40 -95 4 -11 87 -204 114 -262 11 -27 31 -69 42 -95 12 -27 45
-97 74 -158 28 -60 64 -138 80 -172 16 -35 33 -63 38 -63 6 0 8 -3 4 -6 -6 -6
92 -203 113 -230 7 -8 9 -14 5 -14 -4 0 -3 -6 3 -12 5 -7 30 -51 54 -98 25
-47 59 -109 77 -138 17 -29 31 -55 31 -58 0 -3 16 -30 35 -60 19 -30 35 -56
35 -58 0 -3 22 -42 48 -88 26 -46 63 -114 82 -153 19 -38 38 -71 43 -73 4 -2
7 -9 7 -15 0 -7 13 -39 29 -72 65 -135 171 -390 171 -411 0 -8 5 -14 12 -14 6
0 8 -3 5 -6 -3 -4 -2 -15 4 -25 5 -11 30 -76 54 -147 25 -70 48 -134 51 -142
3 -8 6 -17 6 -20 0 -3 11 -34 23 -70 27 -75 89 -269 134 -420 18 -58 36 -116
41 -130 5 -14 23 -72 40 -130 17 -58 36 -116 41 -129 8 -20 4 -33 -29 -80 -34
-49 -50 -79 -57 -103 -2 -5 -3 -9 -5 -10 -11 -15 -13 -87 -5 -177 5 -63 27
-91 96 -126 25 -13 51 -31 58 -39 8 -9 18 -16 24 -16 6 0 18 -6 26 -13 20 -17
138 -57 188 -65 55 -8 357 -9 363 -1 3 3 28 9 55 13 61 7 77 10 135 26 25 7
50 13 55 14 71 15 269 93 360 142 36 18 65 31 65 26 0 -4 4 -2 8 3 4 6 27 21
52 34 25 13 53 31 63 39 9 8 17 11 17 6 0 -5 4 -4 8 1 4 6 32 27 63 47 53 34
159 132 203 188 45 57 79 144 80 205 1 53 -26 167 -44 188 -3 4 18 80 48 170
30 89 74 234 98 322 24 88 49 178 55 200 7 22 13 49 15 60 1 11 10 49 19 84 9
35 18 77 20 92 2 16 6 32 8 36 3 4 8 25 11 45 3 21 11 57 17 80 5 24 12 54 14
68 1 14 4 26 5 28 3 3 5 9 15 67 4 28 9 55 11 60 3 11 22 104 29 145 3 14 7
36 10 50 3 14 8 39 10 55 3 17 7 39 9 50 14 66 36 174 40 200 3 17 7 39 10 50
6 27 35 154 42 185 3 14 16 68 30 120 14 52 27 102 29 110 2 8 11 40 20 70 9
30 20 69 25 85 19 69 90 291 107 335 3 8 33 96 68 195 34 99 76 216 93 260 37
97 101 268 117 312 13 38 21 48 23 30 2 -16 12 -128 17 -197 3 -30 7 -77 9
-105 7 -72 14 -169 21 -255 3 -41 8 -95 11 -120 3 -25 7 -72 9 -105 2 -33 6
-96 9 -140 11 -169 17 -264 22 -380 7 -140 13 -1386 7 -1398 -2 -4 -6 -103 -8
-220 -2 -116 -7 -324 -10 -462 -19 -700 -19 -1124 -1 -1285 3 -25 8 -72 11
-105 6 -69 12 -123 20 -180 3 -22 8 -62 11 -89 3 -28 7 -53 10 -57 2 -4 7 -27
10 -51 3 -24 13 -74 21 -113 8 -38 17 -83 19 -100 3 -16 12 -61 20 -100 8 -38
17 -86 19 -105 3 -19 8 -46 11 -60 8 -35 13 -60 18 -102 2 -21 7 -41 10 -46 3
-5 8 -34 10 -63 3 -30 8 -67 11 -84 4 -16 8 -60 9 -96 l3 -66 -48 -53 c-26
-29 -63 -83 -81 -119 -29 -58 -33 -76 -33 -146 0 -96 17 -138 85 -206 41 -41
127 -92 175 -104 133 -33 171 -38 310 -39 127 0 250 7 250 14 0 1 11 4 25 5
38 6 71 13 115 25 22 6 49 13 59 15 35 8 91 28 136 48 25 10 61 26 80 35 50
21 174 94 178 104 2 4 8 8 14 8 43 0 298 270 298 316 0 8 4 14 9 14 10 0 75
149 92 213 15 58 19 73 35 162 14 74 9 515 -6 515 -3 0 -5 12 -6 28 0 15 -4
45 -8 67 -4 22 -9 54 -12 70 -3 17 -16 84 -29 150 -13 66 -26 131 -29 145 -2
14 -9 45 -15 70 -5 25 -10 46 -10 48 -1 1 -1 3 -2 5 0 1 -2 10 -4 19 -2 9 -15
77 -29 150 -14 73 -28 153 -30 178 -3 25 -10 82 -16 127 -23 181 -32 357 -33
643 0 199 9 555 13 555 1 0 3 38 5 85 2 47 6 123 9 170 3 47 8 123 11 170 4
47 8 114 11 150 2 36 6 106 9 155 3 50 7 119 9 155 26 357 26 874 0 1285 -2
33 -6 103 -8 155 -3 52 -7 115 -10 140 -3 25 -8 86 -11 135 -10 150 -22 306
-30 385 -2 19 -6 76 -9 125 -4 50 -9 101 -11 115 -2 14 -7 66 -11 115 -3 50
-8 104 -9 120 -2 17 -6 68 -10 115 -4 47 -8 101 -10 120 -2 19 -5 59 -6 88 -1
28 -7 52 -12 52 -5 0 -4 6 2 13 6 8 9 16 7 18 -4 4 -10 63 -21 229 -10 136
-17 258 -20 340 -2 47 -4 85 -5 85 -5 0 -13 333 -13 600 -1 289 3 456 18 780
2 44 6 145 10 225 3 80 8 188 10 240 6 130 6 660 0 740 -3 36 -7 94 -10 130
-4 63 -11 131 -20 215 -3 22 -12 81 -20 130 -8 50 -18 106 -21 125 -11 66 -65
280 -95 372 -24 73 -29 104 -25 146 3 29 7 56 10 60 2 4 7 23 10 42 6 37 12
69 21 110 16 70 16 130 0 159 -31 62 -99 105 -200 128 -55 13 -366 29 -376 19z"/>
</g>
</svg>
