<svg xmlns="http://www.w3.org/2000/svg" width="320" height="6" viewBox="0 0 1153.605 23"><path d="M1191.036 23c-9.618 0-14.643-4.589-18.681-8.276-3.64-3.323-6.27-5.724-11.983-5.724-5.715 0-8.345 2.401-11.984 5.724-4.039 3.688-9.064 8.276-18.682 8.276-9.618 0-14.643-4.589-18.682-8.276-3.64-3.323-6.268-5.724-11.982-5.724-5.714 0-8.343 2.401-11.983 5.724-4.038 3.688-9.063 8.276-18.68 8.276-9.619 0-14.645-4.589-18.683-8.276-3.64-3.323-6.27-5.724-11.984-5.724-5.715 0-8.344 2.401-11.983 5.724-4.04 3.687-9.065 8.276-18.682 8.276-9.617 0-14.643-4.589-18.682-8.276C984.725 11.401 982.097 9 976.382 9c-5.714 0-8.343 2.401-11.982 5.724-4.04 3.687-9.066 8.276-18.683 8.276-9.617 0-14.644-4.589-18.683-8.276C923.394 11.401 920.765 9 915.051 9s-8.343 2.401-11.983 5.724c-4.04 3.687-9.065 8.276-18.682 8.276-9.618 0-14.645-4.589-18.683-8.276C862.063 11.401 859.434 9 853.719 9c-5.712 0-8.341 2.4-11.98 5.723-4.038 3.688-9.063 8.277-18.68 8.277-9.618 0-14.644-4.589-18.682-8.276C800.737 11.401 798.108 9 792.393 9c-5.713 0-8.342 2.401-11.98 5.723-4.04 3.688-9.064 8.277-18.681 8.277-9.619 0-14.645-4.589-18.682-8.277C739.413 11.401 736.783 9 731.068 9c-5.715 0-8.342 2.401-11.982 5.723C715.05 18.411 710.023 23 700.405 23s-14.643-4.589-18.68-8.276C678.087 11.401 675.458 9 669.743 9c-5.715 0-8.343 2.401-11.983 5.724C653.722 18.411 648.697 23 639.08 23c-9.619 0-14.645-4.589-18.683-8.276C616.756 11.401 614.127 9 608.41 9c-5.714 0-8.344 2.401-11.983 5.724C592.39 18.411 587.364 23 577.746 23c-9.617 0-14.643-4.589-18.681-8.276C555.426 11.401 552.797 9 547.082 9c-5.715 0-8.345 2.401-11.983 5.724C531.06 18.411 526.035 23 516.417 23c-9.618 0-14.644-4.589-18.681-8.276C494.097 11.401 491.466 9 485.753 9c-5.716 0-8.345 2.401-11.984 5.724-4.04 3.687-9.066 8.276-18.683 8.276-9.618 0-14.644-4.589-18.684-8.276C432.762 11.401 430.133 9 424.416 9c-5.715 0-8.345 2.401-11.984 5.724-4.038 3.687-9.065 8.276-18.683 8.276s-14.644-4.589-18.682-8.276C371.427 11.401 368.797 9 363.082 9c-5.716 0-8.345 2.401-11.984 5.724-4.039 3.687-9.065 8.276-18.683 8.276s-14.644-4.589-18.683-8.276C310.092 11.401 307.462 9 301.747 9s-8.346 2.401-11.985 5.724C285.724 18.411 280.696 23 271.078 23c-9.619 0-14.644-4.589-18.684-8.276C248.755 11.401 246.124 9 240.408 9c-5.714 0-8.343 2.401-11.983 5.724-4.037 3.687-9.063 8.276-18.68 8.276-9.618 0-14.644-4.589-18.683-8.276C187.422 11.401 184.793 9 179.078 9s-8.345 2.401-11.985 5.724C163.055 18.411 158.03 23 148.41 23s-14.645-4.589-18.684-8.276C126.086 11.401 123.456 9 117.739 9c-5.717 0-8.346 2.401-11.987 5.724C101.712 18.411 96.685 23 87.067 23c-9.619 0-14.645-4.589-18.685-8.276C64.742 11.401 62.112 9 56.394 9c-5.717 0-8.348 2.401-11.988 5.724C40.369 18.411 35.34 23 25.722 23c-9.619 0-14.646-4.588-18.686-8.276C3.395 11.401.764 9-4.954 9c-5.719 0-8.349 2.401-11.99 5.724C-20.982 18.411-26.01 23-35.63 23v-9c5.718 0 8.348-2.401 11.99-5.724C-19.6 4.588-14.573 0-4.954 0c9.62 0 14.646 4.588 18.687 8.276 3.64 3.323 6.27 5.724 11.99 5.724 5.717 0 8.346-2.401 11.986-5.724C41.75 4.589 46.775 0 56.394 0c9.62 0 14.646 4.589 18.685 8.276C78.719 11.599 81.35 14 87.067 14c5.718 0 8.348-2.401 11.988-5.724C103.094 4.589 108.12 0 117.739 0c9.619 0 14.646 4.589 18.685 8.276 3.64 3.323 6.27 5.724 11.986 5.724 5.716 0 8.346-2.401 11.985-5.724C164.434 4.589 169.46 0 179.078 0s14.644 4.589 18.683 8.276C201.4 11.599 204.03 14 209.745 14c5.714 0 8.343-2.401 11.983-5.724C225.766 4.589 230.79 0 240.408 0c9.618 0 14.645 4.589 18.684 8.276 3.64 3.323 6.27 5.724 11.986 5.724 5.717 0 8.346-2.401 11.985-5.724C287.103 4.589 292.13 0 301.747 0s14.644 4.589 18.683 8.276c3.64 3.323 6.269 5.724 11.985 5.724 5.716 0 8.345-2.401 11.985-5.724C348.437 4.589 353.463 0 363.082 0c9.618 0 14.644 4.589 18.683 8.276 3.64 3.323 6.27 5.724 11.984 5.724 5.716 0 8.345-2.401 11.984-5.724C409.773 4.589 414.8 0 424.416 0c9.62 0 14.644 4.589 18.684 8.276 3.64 3.323 6.269 5.724 11.985 5.724 5.715 0 8.344-2.401 11.984-5.724C471.109 4.589 476.134 0 485.753 0c9.617 0 14.643 4.589 18.681 8.276 3.64 3.323 6.269 5.724 11.984 5.724 5.714 0 8.344-2.401 11.983-5.724C532.44 4.589 537.464 0 547.081 0c9.618 0 14.644 4.589 18.682 8.276 3.639 3.323 6.268 5.724 11.983 5.724 5.714 0 8.344-2.401 11.983-5.724C593.77 4.589 598.793 0 608.411 0c9.62 0 14.644 4.589 18.684 8.276 3.64 3.323 6.268 5.724 11.984 5.724 5.714 0 8.343-2.401 11.983-5.724C655.1 4.589 660.126 0 669.743 0s14.643 4.589 18.68 8.277C692.064 11.6 694.692 14 700.406 14c5.714 0 8.343-2.401 11.983-5.724C716.426 4.589 721.452 0 731.067 0s14.643 4.589 18.68 8.276c3.64 3.323 6.27 5.724 11.984 5.724 5.713 0 8.342-2.401 11.98-5.723C777.751 4.589 782.776 0 792.392 0c9.62 0 14.645 4.589 18.684 8.276 3.64 3.323 6.268 5.724 11.984 5.724 5.713 0 8.342-2.401 11.98-5.724C839.078 4.589 844.103 0 853.72 0c9.618 0 14.644 4.589 18.683 8.276C876.04 11.599 878.669 14 884.386 14c5.716 0 8.344-2.401 11.984-5.724C900.408 4.589 905.434 0 915.05 0c9.618 0 14.643 4.589 18.682 8.276 3.64 3.323 6.269 5.724 11.984 5.724s8.344-2.401 11.984-5.724C961.739 4.589 966.764 0 976.382 0c9.619 0 14.644 4.589 18.682 8.276 3.64 3.323 6.269 5.724 11.983 5.724s8.343-2.401 11.983-5.724c4.038-3.687 9.063-8.276 18.682-8.276 9.618 0 14.644 4.589 18.682 8.276 3.64 3.323 6.269 5.724 11.984 5.724 5.714 0 8.343-2.401 11.983-5.724 4.038-3.688 9.063-8.276 18.68-8.276 9.619 0 14.644 4.589 18.682 8.276 3.64 3.323 6.269 5.724 11.983 5.724s8.344-2.401 11.983-5.724c4.038-3.688 9.065-8.276 18.683-8.276s14.643 4.589 18.681 8.276c3.64 3.323 6.27 5.724 11.983 5.724z" fill="#e6e7e8"/></svg>